<?xml version="1.0" encoding="UTF-8" standalone="no"?>
<svg
   xmlns:figma="http://www.figma.com/figma/ns"
   xmlns:dc="http://purl.org/dc/elements/1.1/"
   xmlns:cc="http://creativecommons.org/ns#"
   xmlns:rdf="http://www.w3.org/1999/02/22-rdf-syntax-ns#"
   xmlns:svg="http://www.w3.org/2000/svg"
   xmlns="http://www.w3.org/2000/svg"
   xmlns:xlink="http://www.w3.org/1999/xlink"
   xmlns:sodipodi="http://sodipodi.sourceforge.net/DTD/sodipodi-0.dtd"
   xmlns:inkscape="http://www.inkscape.org/namespaces/inkscape"
   width="39"
   height="51"
   viewBox="0 0 39 51"
   version="2.0"
   id="svg40"
   sodipodi:docname="jupyter.svg"
   inkscape:version="0.92.2 (5c3e80d, 2017-08-06)">
  <metadata
     id="metadata44">
    <rdf:RDF>
      <cc:Work
         rdf:about="">
        <dc:format>image/svg+xml</dc:format>
        <dc:type
           rdf:resource="http://purl.org/dc/dcmitype/StillImage" />
      </cc:Work>
    </rdf:RDF>
  </metadata>
  <sodipodi:namedview
     pagecolor="#ffffff"
     bordercolor="#666666"
     borderopacity="1"
     objecttolerance="10"
     gridtolerance="10"
     guidetolerance="10"
     inkscape:pageopacity="0"
     inkscape:pageshadow="2"
     inkscape:window-width="1600"
     inkscape:window-height="1138"
     id="namedview42"
     showgrid="false"
     inkscape:zoom="18.509804"
     inkscape:cx="22.307511"
     inkscape:cy="26.170383"
     inkscape:window-x="-8"
     inkscape:window-y="-8"
     inkscape:window-maximized="1"
     inkscape:current-layer="logo" />
  <title
     id="title2">logo-5.svg</title>
  <desc
     id="desc4">Created using Figma 0.90</desc>
  <g
     id="Canvas"
     transform="translate(-1638 -2281)"
     figma:type="canvas">
    <g
       id="logo"
       style="mix-blend-mode:normal;"
       figma:type="group">
      <g
         id="g"
         style="mix-blend-mode:normal;"
         figma:type="group">
        <g
           id="path"
           style="mix-blend-mode:normal;"
           figma:type="group">
          <g
             id="path7 fill"
             style="mix-blend-mode:normal;"
             figma:type="vector">
            <use
               xlink:href="#path0_fill"
               transform="translate(1669.3 2281.31)"
               style="mix-blend-mode:normal;fill:#ffffff"
               id="use6"
               fill="#767677" />
          </g>
        </g>
        <g
           id="g13"
           style="mix-blend-mode:normal;"
           figma:type="group">
          <g
             id="path8 fill"
             style="mix-blend-mode:normal;"
             figma:type="vector">
            <use
               xlink:href="#path1_fill"
               transform="translate(1639.74 2311.98)"
               style="mix-blend-mode:normal;fill:#ffffff"
               id="use10"
               fill="#F37726" />
          </g>
        </g>
        <g
           id="g18"
           style="mix-blend-mode:normal;"
           figma:type="group">
          <g
             id="path9 fill"
             style="mix-blend-mode:normal;"
             figma:type="vector">
            <use
               xlink:href="#path2_fill"
               transform="translate(1639.73 2285.48)"
               style="mix-blend-mode:normal;fill:#ffffff"
               id="use15"
               fill="#F37726" />
          </g>
        </g>
        <g
           id="g23"
           style="mix-blend-mode:normal;"
           figma:type="group">
          <g
             id="path10 fill"
             style="mix-blend-mode:normal;"
             figma:type="vector">
            <use
               xlink:href="#path3_fill"
               transform="translate(1639.8 2323.81)"
               style="mix-blend-mode:normal;fill:#ffffff"
               id="use20"
               fill="#989798" />
          </g>
        </g>
        <g
           id="g28"
           style="mix-blend-mode:normal;"
           figma:type="group">
          <g
             id="path11 fill"
             style="mix-blend-mode:normal;"
             figma:type="vector">
            <use
               xlink:href="#path4_fill"
               transform="translate(1638.36 2286.06)"
               style="mix-blend-mode:normal;fill:#ffffff"
               id="use25"
               fill="#6F7070" />
          </g>
        </g>
      </g>
      <path
         style="opacity:0;fill:#ffffff;fill-opacity:1;stroke-width:0.05402542"
         d="M 4.6077328,50.161121 C 2.9590383,49.71545 1.8290463,48.24632 1.8328137,46.55338 c 0.00135,-0.605742 0.1229017,-1.105256 0.4109597,-1.688801 0.4215044,-0.853878 1.2470597,-1.569247 2.1272972,-1.843367 1.0000224,-0.311424 1.9271519,-0.226665 2.8903601,0.264237 0.5116143,0.260746 1.222745,0.972286 1.4973314,1.498192 0.5288889,1.012965 0.578843,2.268532 0.1305827,3.282128 -0.4144312,0.937102 -1.216021,1.672797 -2.2041166,2.022926 -0.5444531,0.192925 -1.5075193,0.2265 -2.0774954,0.07243 z"
         id="path869"
         inkscape:connector-curvature="0"
         transform="translate(1638,2281)" />
      <path
         style="opacity:0;fill:#f9f9f9;fill-opacity:1;stroke-width:0.05402542"
         d="M 4.6077328,50.161121 C 2.9590383,49.71545 1.8290463,48.24632 1.8328137,46.55338 c 0.00135,-0.605742 0.1229017,-1.105256 0.4109597,-1.688801 0.4215044,-0.853878 1.2470597,-1.569247 2.1272972,-1.843367 1.0000224,-0.311424 1.9271519,-0.226665 2.8903601,0.264237 0.5116143,0.260746 1.222745,0.972286 1.4973314,1.498192 0.5288889,1.012965 0.578843,2.268532 0.1305827,3.282128 -0.4144312,0.937102 -1.216021,1.672797 -2.2041166,2.022926 -0.5444531,0.192925 -1.5075193,0.2265 -2.0774954,0.07243 z"
         id="path871"
         inkscape:connector-curvature="0"
         transform="translate(1638,2281)" />
    </g>
  </g>
  <defs
     id="defs38">
    <path
       id="path0_fill"
       d="M 5.89353 2.844C 5.91889 3.43165 5.77085 4.01367 5.46815 4.51645C 5.16545 5.01922 4.72168 5.42015 4.19299 5.66851C 3.6643 5.91688 3.07444 6.00151 2.49805 5.91171C 1.92166 5.8219 1.38463 5.5617 0.954898 5.16401C 0.52517 4.76633 0.222056 4.24903 0.0839037 3.67757C -0.0542483 3.10611 -0.02123 2.50617 0.178781 1.95364C 0.378793 1.4011 0.736809 0.920817 1.20754 0.573538C 1.67826 0.226259 2.24055 0.0275919 2.82326 0.00267229C 3.60389 -0.0307115 4.36573 0.249789 4.94142 0.782551C 5.51711 1.31531 5.85956 2.05676 5.89353 2.844Z" />
    <path
       id="path1_fill"
       d="M 18.2646 7.13411C 10.4145 7.13411 3.55872 4.2576 0 0C 1.32539 3.8204 3.79556 7.13081 7.0686 9.47303C 10.3417 11.8152 14.2557 13.0734 18.269 13.0734C 22.2823 13.0734 26.1963 11.8152 29.4694 9.47303C 32.7424 7.13081 35.2126 3.8204 36.538 0C 32.9705 4.2576 26.1148 7.13411 18.2646 7.13411Z" />
    <path
       id="path2_fill"
       d="M 18.2733 5.93931C 26.1235 5.93931 32.9793 8.81583 36.538 13.0734C 35.2126 9.25303 32.7424 5.94262 29.4694 3.6004C 26.1963 1.25818 22.2823 0 18.269 0C 14.2557 0 10.3417 1.25818 7.0686 3.6004C 3.79556 5.94262 1.32539 9.25303 0 13.0734C 3.56745 8.82463 10.4232 5.93931 18.2733 5.93931Z" />
    <path
       id="path3_fill"
       d="M 7.42789 3.58338C 7.46008 4.3243 7.27355 5.05819 6.89193 5.69213C 6.51031 6.32607 5.95075 6.83156 5.28411 7.1446C 4.61747 7.45763 3.87371 7.56414 3.14702 7.45063C 2.42032 7.33712 1.74336 7.0087 1.20184 6.50695C 0.660328 6.0052 0.27861 5.35268 0.105017 4.63202C -0.0685757 3.91135 -0.0262361 3.15494 0.226675 2.45856C 0.479587 1.76217 0.931697 1.15713 1.52576 0.720033C 2.11983 0.282935 2.82914 0.0334395 3.56389 0.00313344C 4.54667 -0.0374033 5.50529 0.316706 6.22961 0.987835C 6.95393 1.65896 7.38484 2.59235 7.42789 3.58338L 7.42789 3.58338Z" />
    <path
       id="path4_fill"
       d="M 2.27471 4.39629C 1.84363 4.41508 1.41671 4.30445 1.04799 4.07843C 0.679268 3.8524 0.385328 3.52114 0.203371 3.12656C 0.0214136 2.73198 -0.0403798 2.29183 0.0258116 1.86181C 0.0920031 1.4318 0.283204 1.03126 0.575213 0.710883C 0.867222 0.39051 1.24691 0.164708 1.66622 0.0620592C 2.08553 -0.0405897 2.52561 -0.0154714 2.93076 0.134235C 3.33591 0.283941 3.68792 0.551505 3.94222 0.90306C 4.19652 1.25462 4.34169 1.67436 4.35935 2.10916C 4.38299 2.69107 4.17678 3.25869 3.78597 3.68746C 3.39516 4.11624 2.85166 4.37116 2.27471 4.39629L 2.27471 4.39629Z" />
  </defs>
  <path
     style="opacity:0;fill:#ffffff;fill-opacity:1"
     id="path857"
     ry="0.45921609"
     rx="0.72934324"
     cy="6.1859112"
     cx="1.7558262" />
  <path
     style="opacity:0;fill:#ffffff;fill-opacity:1"
     id="path859"
     sodipodi:type="arc"
     sodipodi:cx="0.64830518"
     sodipodi:cy="5.4295554"
     sodipodi:rx="2.7012713"
     sodipodi:ry="2.7282839"
     sodipodi:start="0"
     sodipodi:end="1.3642576"
     d="M 3.3495765,5.4295554 A 2.7012713,2.7282839 0 0 1 1.2022641,8.099854 L 0.64830518,5.4295554 Z" />
  <path
     style="opacity:0;fill:#ffffff;fill-opacity:1;stroke-width:0.05402542"
     d="M 33.583746,6.1528558 C 32.619329,5.9085993 31.848739,5.2118794 31.492565,4.2621383 31.325619,3.8169751 31.28663,3.0842994 31.40488,2.6143629 c 0.269913,-1.0726616 1.090921,-1.91797239 2.120705,-2.18348112 0.999311,-0.25765182 2.024328,0.0307236 2.779543,0.78198902 1.270591,1.2639465 1.099834,3.416939 -0.353242,4.4538325 -0.673455,0.4805673 -1.621636,0.6752182 -2.36814,0.4861525 z"
     id="path861"
     inkscape:connector-curvature="0" />
</svg>
